<svg xmlns="http://www.w3.org/2000/svg" width="900" height="640" viewBox="0 0 900 640" role="img" aria-label="Sistema a medida">
  <rect width="900" height="640" rx="28" fill="#0d0d0d"/>
  <defs><linearGradient id="s" x1="0" x2="1"><stop offset="0" stop-color="#4f4f4f"/><stop offset=".22" stop-color="#fff"/><stop offset=".45" stop-color="#8c8c8c"/><stop offset="1" stop-color="#e9e9e9"/></linearGradient></defs>
  <path d="M130 435c125-62 211-132 260-220 18-33 60-44 92-26 34 19 45 62 25 95-55 92-143 163-263 222-38 19-85 3-104-35-7-13-10-25-10-36z" fill="url(#s)"/>
  <path d="M400 218c90 26 168 69 235 129 32 29 36 78 7 110-29 33-79 35-111 5-48-44-104-76-169-96" fill="none" stroke="url(#s)" stroke-width="70" stroke-linecap="round"/>
  <path d="M603 338l130 42" stroke="#ef1b2d" stroke-width="38" stroke-linecap="round"/>
  <text x="62" y="110" fill="#fff" font-family="Arial, Helvetica, sans-serif" font-size="44" font-weight="900">SISTEMA A MEDIDA</text>
  <text x="62" y="155" fill="#ef1b2d" font-family="Arial, Helvetica, sans-serif" font-size="24" font-weight="900">SEGUN MODELO Y USO</text>
</svg>
